<?xml version="1.0" encoding="utf-8"?>
<!-- Generator: Adobe Illustrator 25.0.0, SVG Export Plug-In . SVG Version: 6.00 Build 0)  -->
<svg version="1.1" id="Layer_1" xmlns="http://www.w3.org/2000/svg" xmlns:xlink="http://www.w3.org/1999/xlink" x="0px" y="0px"
	 viewBox="0 0 128 128" style="enable-background:new 0 0 128 128;" xml:space="preserve">
<style type="text/css">
	.st0{fill:#D39555;stroke:#000000;stroke-width:0.6415;stroke-miterlimit:10;}
	.st1{fill:#E91FFF;stroke:#000000;stroke-width:4.277;stroke-miterlimit:10;}
	.st2{fill:#E91FFF;stroke:#000000;stroke-width:2.1385;stroke-miterlimit:10;}
	.st3{fill:#E91FFF;stroke:#000000;stroke-width:0.6415;stroke-miterlimit:10;}
	.st4{fill:#00DFB6;stroke:#000000;stroke-width:0.6415;stroke-miterlimit:10;}
	.st5{fill:#DC9555;stroke:#000000;stroke-width:0.6415;stroke-miterlimit:10;}
	.st6{fill:#E91FFF;stroke:#000000;stroke-width:1.0692;stroke-miterlimit:10;}
	.st7{fill:none;stroke:#000000;stroke-width:0.5346;stroke-miterlimit:10;}
	.st8{fill:none;stroke:#000000;stroke-width:0.7794;stroke-miterlimit:10;}
	.st9{fill:#D39555;stroke:#000000;stroke-width:1.0692;stroke-miterlimit:10;}
</style>
<g>
	<path d="M99.28,48.14c-1.01,5.52-3.96,9.72-7.05,12.79c-2.51,2.53-5.11,4.36-6.83,5.61c-0.22,0.17-1.23,0.87-2.82,1.83
		c-4.41,2.66-13.35,7.27-22.78,7.56c-4.05,0.17-8.19-0.5-12.11-2.41c-0.4-0.21-0.75-0.37-1.1-0.62c-1.5-0.83-2.82-1.83-4.05-2.95
		c-4.36-4.19-7-10.38-10.75-19.1c-3.35-7.85-6.3-14.91-4.27-23.71c0.53-2.41,2.2-9.38,8.81-15.03c4.76-4.07,9.74-5.44,11.81-6.02
		C58.75,3.25,67.87,6.7,71.93,8.2c9.38,3.53,14.93,9.14,16.52,10.8C90.82,21.52,102.01,33.32,99.28,48.14z"/>
	<ellipse class="st0" cx="32.62" cy="105.63" rx="7.4" ry="6.36"/>
	<path class="st1" d="M60.16,81.87c-0.35,2.41,8.72,3.24,16.7,10.59c2.69,2.49,7.44,6.85,7.89,13.45c0.04,0.79,0.04,1.58-0.04,2.41
		c2.69-1.12,5.51-2.7,8.02-4.86c-1.98,1.74-4.67,3.78-8.02,5.11c-1.45,0.62-3.08,1.08-4.8,1.37c0,0,0,0-0.04,0
		c-14.36,2.24-27.09-12.08-32.55-25.29c-1.98-4.82-3.17-9.14-3.7-13.04c-0.04-0.29-0.04-0.62-0.09-0.91
		c-0.31-2.82-0.22-5.36,0.22-7.68c0.62-3.57,1.98-6.56,4.1-8.97c0.44-0.62,1.01-1.2,1.63-1.7c0,0,0,0,0.04,0
		c5.77-5.23,15.15-6.77,25.68-4.69c1.37,0.21,2.73,0.54,4.1,0.95c2.6,0.66,5.24,1.58,7.93,2.7c0.31,0.12,0.57,0.25,0.88,0.37
		c1.81,0.79,3.61,1.54,5.33,2.33c-2.51,2.53-5.11,4.36-6.83,5.61c-0.22,0.17-1.23,0.87-2.82,1.83c-3.44,7.72-3.74,8.18-4.49,9.09
		c-3.04,3.82-6.78,5.85-8.81,6.89C64.26,80.75,60.42,80.3,60.16,81.87z"/>
	<path class="st2" d="M97.43,98.07c4.05-6.31,4.32-12.71,4.41-12.71C101.96,85.4,101.79,91.63,97.43,98.07z"/>
	<path class="st3" d="M104.39,73.64c-1.84-4.43-3.56-8.54-7.05-12.66c-5.07-5.97-10.91-8.42-14.7-9.49
		c-0.21,2.29-0.62,3.95-0.97,5.07c-0.1,0.31-0.27,0.81-0.6,1.81c-0.46,1.38-0.85,2.5-1.11,3.26c-2.68,7.72-2.92,8.18-3.51,9.09
		c-2.37,3.82-5.29,5.85-6.87,6.89c-4.85,3.32-9.21,2.68-9.42,4.26c-0.28,2.41,2.64,3.3,8.86,10.65c2.1,2.49,11.35,6.97,11.7,13.57
		c0.03,0.79,0.03,1.58-0.03,2.41c1.88-1.05,4.58-2.9,7.19-6.06c1.56-1.9,2.52-3.58,3.55-5.38c2.95-5.17,4.34-9.82,4.34-9.82
		c-0.22-0.14-4.18,16.03-15.08,21.51c-1.47,0.74-2.78,1.14-3.75,1.37c0,0,0,0-0.03,0c-1.48,0.54-2.72,0.83-3.47,0.95
		c-8.87,1.49-7.55-2.98-9.54-0.2c-0.28,0.37-3.18,0.57-3.42,1.11c0.1,1.54,1.07,4.9,1.07,7.14c0,0.91,0.07,1.74,0.1,2.57
		c0.1,1.29-0.06,1.29-0.13,2.25c9.86,0.3,17.77-1.12,22.41-3.14c5.11-2.23,11.79-5.24,17.7-12.9c2.93-3.8,6.73-8.73,7.31-16.08
		C109.41,85.69,107.4,80.86,104.39,73.64z"/>
	<path class="st4" d="M84.74,105.92c-1.45,0.62-3.13,3.74-4.85,4.03c0,0-2.01,0.51-2.05,0.51c-1.89,0.54-1.47,0.32-2.44,0.44
		c-8.76,2.27-4.1,0.76-14.93,1.09c-0.35,0.37,0.3,0.65,0,1.19c0.13,1.54-0.31,3.53-0.31,5.77c0,0.91,0.09,1.74,0.13,2.57
		c-0.57-0.12-1.1-0.25-1.67-0.42c-4.45-1.25-8.46-2.99-11.01-4.24c-1.41-0.66-2.42-1.2-2.82-1.45c-0.75-0.42-5.46-3.07-10.22-7.56
		c-3.52-3.36-7.05-7.68-8.94-12.83c-0.26-0.79-0.48-1.58-0.7-2.41c-0.7-2.91-0.93-6.31-1.1-8.8c-0.31-4.48-0.48-7.52,0-9.84
		c0.26-1.29,0.75-2.33,1.5-3.24c2.11-2.62,5.95-4.11,9.16-3.74c2.07,0.29,3.26,1.25,4.54,1.95c1.41,0.87,2.95,1.41,4.49,1.74
		c0.31,0.08,0.57,0.17,0.88,0.21c5.68,1.04,11.5-0.58,14.1-1.25C59.23,69.5,60.07,69.29,61,69c2.33-0.71,5.07-1.79,7.84-3.9
		c0.7-0.54,4.36-3.41,7.09-8.51c2.11-3.99,2.25-6.64,3.35-7.97c0.26-0.37,0.62-0.66,1.15-0.83c2.2-0.79,5.46,0.79,6.56,2.99
		c0.09,0.17,0.13,0.33,0.22,0.54c0.31,1.62-0.88,4.36-3.04,9.18c-0.13,0.33-0.31,0.66-0.4,0.96c-3.44,7.72-3.74,8.18-4.49,9.09
		c-3.04,3.82-6.78,5.85-8.81,6.89c-6.21,3.32-10.04,2.87-10.31,4.44c-0.35,2.41,2.85-1.09,10.83,6.26
		C73.67,90.63,84.3,99.31,84.74,105.92"/>
	<path class="st0" d="M61.5,112.06c-0.84,0.58-0.31,2.51-0.31,5.77c0,0.91,0.09,1.74,0.13,2.57c0.13,2.37,0.05,0.44,0.08,1.12
		c0.1,2.43,0.09,2.24-6.45,2.42c-4.18,0.12-6.63-1.51-6.63-6.12c0-0.71,0.09-1.41,0.31-2.08c1.64-4.95,11.04-3.54,11.83-3.68"/>
	<ellipse class="st5" cx="32.01" cy="59.91" rx="17.01" ry="16.04"/>
	<path class="st0" d="M78.3,40.08c-0.95,5.75-5.01,11.98-11.77,14.31c-10.94,3.76-23.87-4.44-24.03-10.16
		c-0.1-3.58,4.85-4.56,5.62-10.25c0.7-5.16-2.78-8.69-1.31-9.9c1.42-1.17,4.46,2.32,9.94,3c7.65,0.95,8.69-5.81,13.37-4.24
		C75.08,24.51,79.32,33.88,78.3,40.08z"/>
	<path class="st2" d="M37.83,50.32"/>
	<path class="st2" d="M74.01,114.99"/>
	<path class="st6" d="M101,91.49"/>
	<path class="st7" d="M60.59,47.85c0.96,0.74,2.23,0.97,3.33,0.57c1.39-0.51,2.27-1.96,2.03-3.5"/>
	<path class="st8" d="M43.32,66.11c1.49,0.33,3.38-0.3,4.9-1.67"/>
	<path class="st9" d="M26.86,103.47"/>
</g>
</svg>
