<?xml version="1.0" encoding="utf-8"?>
<!-- Generator: Adobe Illustrator 25.0.0, SVG Export Plug-In . SVG Version: 6.00 Build 0)  -->
<svg version="1.1" id="Layer_1" xmlns="http://www.w3.org/2000/svg" xmlns:xlink="http://www.w3.org/1999/xlink" x="0px" y="0px"
	 viewBox="0 0 128 128" style="enable-background:new 0 0 128 128;" xml:space="preserve">
<style type="text/css">
	.st0{fill:#FFCAA6;stroke:#000000;stroke-width:0.3628;stroke-miterlimit:10;}
	.st1{fill:#FFFFFF;stroke:#000000;stroke-width:0.3733;stroke-miterlimit:10;}
	.st2{fill:#FFFFFF;stroke:#000000;stroke-width:0.3102;stroke-miterlimit:10;}
	.st3{fill:#00FFFF;stroke:#0000FF;stroke-width:0.3509;stroke-miterlimit:10;}
	.st4{stroke:#000000;stroke-width:0.9071;stroke-miterlimit:10;}
	.st5{fill:#FF482A;}
	.st6{fill:#CB2400;}
	.st7{fill:#AF2400;}
	.st8{fill:#FFFFFF;}
	.st9{fill:#FFCB65;stroke:#000000;stroke-width:0.878;stroke-miterlimit:10;}
	.st10{fill:none;stroke:#000000;stroke-width:0.878;stroke-miterlimit:10;}
	.st11{stroke:#FFFFFF;stroke-width:0.9071;stroke-miterlimit:10;}
	.st12{fill:#D40000;}
	.st13{fill:#FFFFFF;stroke:#FFFFFF;stroke-width:0.0384;stroke-miterlimit:10;}
	.st14{fill:none;stroke:#000000;stroke-width:0.581;stroke-miterlimit:10;}
	.st15{fill:none;stroke:#000000;stroke-width:0.6148;stroke-miterlimit:10;}
	.st16{fill:none;stroke:#000000;stroke-width:0.4191;stroke-miterlimit:10;}
</style>
<g>
	<path class="st0" d="M53.95,90.61L20.96,69.93c0,0-8.34-4.4-8.63,7.33l4.1,4.56l32.18,34.23c0,0,7.17,9.78,15.21,4.24
		c8.04-5.54,27.94-12.06,27.94-12.06s6.14-3.26,13.31,0.85V77.63c-5.06-3.09-11.33-3-15.5-2.32c-8.03,1.31-7.76,4.72-21.06,10.11
		c-9.4,3.81-16.36,3.95-18.57,9.29c-0.29,0.7-0.93,2.17,0.55,5.39c1.36,2.95,4.67,1.8,5.3,1.95c3.03,0.73,13.11-2.73,14.33-3.43
		c5.07-2.89,13.99,0.09,22.52-4.86"/>
	<path class="st1" d="M20.49,86.61c0,0,4.68-3.44,1.37-7.1l-4.84-4.66c-0.71-0.69-1.58-0.85-1.99-0.37l-2.7,3.17L20.49,86.61z"/>
	<path class="st2" d="M52.24,98.78l0.86,3.43c2.81-0.48,5.97,0.03,6.62-0.07l0,0c4.29-3.86,1.87-4,1.87-4s-1.18-1.3-4.39-2.57
		l-4.17,1.66C52.43,97.47,52.08,98.14,52.24,98.78z"/>
	<path class="st3" d="M115.92,115.75h-5.79c-2.8,0-5.08-2.27-5.08-5.08V76c0-2.8,2.27-5.08,5.08-5.08h5.79
		c2.8,0,5.08,2.27,5.08,5.08v34.67C121,113.47,118.73,115.75,115.92,115.75z"/>
</g>
<path class="st4" d="M7,58.12"/>
<path d="M57.23,70.74"/>
<g>
	<g>
		<g>
			<path class="st5" d="M60.21,78.74c-2.61,2.07-5.22,4.02-7.6,5.71c-8.15-5.94-14.44-11.68-19.14-16.32
				c-12.1-11.8-14.54-17.54-15.5-20.22c-1.58-4.21-5.64-15.25-0.58-26.39C20.72,14.04,27.77,7.38,36.98,6.5
				c0.89-0.08,1.79-0.12,2.65-0.04c-0.31,0-0.58,0.04-0.89,0.04c-8.25,0.8-14.54,6.82-17.53,13.6c-4.5,10.11-0.86,20.07,0.52,23.9
				c0.89,2.41,3.06,7.62,13.89,18.27c5.12,5.09,12.3,11.68,22.03,18.31C58.53,79.96,59.39,79.39,60.21,78.74z"/>
			<path class="st6" d="M93.15,43.94c-0.79,2.15-2.54,6.36-10.21,14.56c-1.07,1.19-2.3,2.41-3.64,3.75
				c-0.58,0.57-1.31,1.26-2.1,2.03c-4.43,4.25-10.14,9.31-17.36,14.44c-0.03,0-0.03,0-0.03,0c-0.83,0.65-1.68,1.23-2.58,1.84
				C47.5,73.93,40.32,67.34,35.2,62.25C24.37,51.6,22.21,46.39,21.31,43.98c-1.37-3.83-5.02-13.79-0.52-23.9
				c2.99-6.78,9.28-12.79,17.53-13.6c0.31,0,0.58-0.04,0.89-0.04c11.07-0.54,17.56,9.12,18.01,9.77c0.45-0.65,7.18-10.65,18.56-9.73
				h0.34c2.06,0.19,4.02,0.69,5.81,1.49c2.68,1.19,5.05,2.95,7.05,5.02c1.96,2.11,3.54,4.52,4.67,7.05
				C98.16,30.15,94.52,40.14,93.15,43.94z"/>
			<path class="st7" d="M51.63,83.72c2.37-1.69,4.07-3.33,6.69-5.4c0,0,0,0,0.03,0c6.56-5.09,13.27-10.69,17.36-14.44
				c0.79-0.77,1.51-1.46,2.1-2.03c1.34-1.34,2.58-2.6,3.64-3.75c7.66-8.2,9.42-12.41,10.21-14.56c1.37-3.79,5.02-13.79,0.52-23.9
				c-1.13-2.53-2.72-4.94-4.67-7.05c-1.99-2.11-4.37-3.83-7.05-5.02c-1.79-0.8-5.75-0.87-7.81-1.07C73.02,6.47,75.39,6,75.77,6
				c0.21,0,0.41,0,0.65,0.04c0.31,0,0.62,0,0.96,0.04c5.74,0.54,10.65,3.33,14.33,7.2c0.38,0.38,0.72,0.8,1.07,1.19
				c0.34,0.42,0.69,0.8,1,1.26c1.31,1.69,2.34,3.49,3.2,5.36c5.05,11.15,1,22.18-0.58,26.39c-0.24,0.65-0.58,1.53-1.13,2.64
				c-1.24,2.45-3.61,6.17-8.56,11.57c-1.65,1.84-3.54,3.83-5.81,6.01c-2.58,2.53-5.67,5.4-9.25,8.47c-2.68,2.26-5.64,4.67-8.9,7.12
				c-1.1,0.8-2.23,1.61-3.4,2.45c-0.24,0.15-0.52,0.31-0.76,0.46c-0.48,0.23-1.41,1.25-1.96,1.32"/>
		</g>
		<g>
			<path class="st8" d="M21.16,28.49c0.6-2.83,1.43-5.5,2.54-8.13c1.13-2.6,2.52-5.19,4.73-7.25c0.56-0.5,1.16-0.98,1.84-1.35
				c0.66-0.36,1.29-0.61,1.96-0.88c1.33-0.52,2.7-0.95,4.12-1.17c2.82-0.47,5.74-0.09,8.25,1.08c-2.65-0.81-5.46-0.78-7.99,0.01
				c-1.27,0.38-2.49,0.95-3.65,1.6c-0.57,0.32-1.17,0.69-1.69,1.03c-0.52,0.31-0.99,0.72-1.43,1.15c-1.77,1.78-2.98,4.21-3.93,6.67
				c-0.93,2.48-1.63,5.13-2.06,7.7L23.84,29c-0.12,0.74-0.83,1.24-1.57,1.12c-0.74-0.12-1.24-0.83-1.12-1.57
				C21.15,28.53,21.16,28.51,21.16,28.49z"/>
		</g>
		<path class="st8" d="M23.94,37.02h-0.37c-0.59,0-1.06-0.48-1.06-1.06V35.3c0-0.59,0.48-1.06,1.06-1.06h0.37
			c0.59,0,1.06,0.48,1.06,1.06v0.66C25,36.54,24.52,37.02,23.94,37.02z"/>
	</g>
	<g>
		<g>
			<path class="st9" d="M63.6,31.02c3.13,1.97,5.38,5.2,6.36,8.88c0.06,0.24,0.09,0.39,0.07,0.4h-0.03c0,0.04,0.03,0.11,0.03,0.14
				c0.03-0.07,0.1-0.14,0.21-0.22c0-0.07,0.1-0.14,0.17-0.22c0.38-0.36,0.86-0.57,1.34-0.57c0.14,0,0.28,0.04,0.41,0.07
				c1.34,0.32,2.37,2.22,2.37,4.52c0,2.51-1.27,4.59-2.78,4.59c-0.69,0-1.27-0.39-1.72-1.04c-1.55,7.64-8.28,13.39-16.09,13.39
				c-8.18,0-14.68-6.28-15.78-14.46c-0.45,0.47-0.96,0.75-1.51,0.75c-1.55,0-2.78-2.08-2.78-4.59c0-2.55,1.24-4.59,2.78-4.59
				c0.76,0,1.41,0.5,1.92,1.29c0.1-0.43,0.13-1.17,0.3-1.56c0.01-0.03,0.12-0.26,0.28-0.59c1.14-2.34,2.78-4.4,4.87-5.85
				c1.74-1.2,3.98-2.34,6.7-2.91c0.56-0.12,2.04-0.39,3.79-0.36C58.08,28.17,61.17,29.49,63.6,31.02z"/>
			<path class="st9" d="M54.2,31.09"/>
			<path class="st9" d="M37.22,35.03"/>
			<path class="st10" d="M41.51,39.27"/>
			<ellipse class="st11" cx="46.79" cy="42.55" rx="1.98" ry="1.98"/>
			<ellipse class="st11" cx="62.21" cy="42.55" rx="1.98" ry="1.98"/>
			<path d="M56.62,47.7c0,0.79-0.76,1.43-1.69,1.43c-0.93,0-1.69-0.64-1.69-1.43c0-0.79,0.76,0.96,1.69,0.96
				C55.87,48.65,56.62,46.91,56.62,47.7z"/>
			<path d="M60.53,39.91c0-0.82,0.76-1.49,1.69-1.49c0.93,0,1.69,0.67,1.69,1.49c0,0.82-0.76-0.99-1.69-0.99
				C61.28,38.92,60.53,40.73,60.53,39.91z"/>
			<path d="M45.1,39.91c0-0.82,0.76-1.49,1.69-1.49c0.93,0,1.69,0.67,1.69,1.49c0,0.82-0.76-0.99-1.69-0.99
				C45.86,38.92,45.1,40.73,45.1,39.91z"/>
			<g>
				<path d="M49.92,53.87c-0.3,0-0.52,0.38-0.44,0.76c0.35,1.71,1.81,3.27,3.52,3.94l0.24,0.04l1.39,0.26
					c0.05,0.02,0.12,0.02,0.17,0.02c0.51,0,1.07-0.13,1.56-0.33c0.02,0,0.03,0,0.03,0c0.1-0.04,0.19-0.09,0.29-0.15
					c1.58-0.7,2.92-2.16,3.25-3.77c0.08-0.38-0.13-0.77-0.44-0.77H49.92z"/>
				<path class="st12" d="M57.73,57.24c-0.02,0.61-0.64,1.18-1.44,1.51c0,0-0.02,0.02-0.03,0.02c-0.49,0.2-1.05,0.33-1.56,0.33
					c-0.05,0-0.12,0-0.17-0.02c-0.51,0-0.98-0.09-1.39-0.26c-0.08,0-0.15-0.04-0.22-0.09c-0.76-0.33-1.25-0.87-1.25-1.48
					c0-0.7,0.64-1.51,1.25-1.53c0.73,0,0.93,1.14,1.69,1.14c0.73,0.02,0.93-1.05,1.69-1.07C56.96,55.76,57.73,56.54,57.73,57.24z"/>
				<path class="st13" d="M56.23,58.71v0.01c0,0-0.43,0.17-0.44,0.17c-0.49,0.1-0.02,0.16-0.52,0.16c-0.05,0-0.96,0.01-1.01,0
					c-0.51,0-0.32-0.07-0.73-0.16l-0.68-0.17c0-0.01,0.02-0.02,0.02-0.02c0.1-0.38,0.44-0.64,0.85-0.66
					c0.34-0.01,0.64,0.17,0.83,0.42c0.15-0.24,0.42-0.41,0.74-0.42C55.71,58.03,56.1,58.31,56.23,58.71z"/>
			</g>
			<path d="M37.72,44.87c-0.73,0.29-1.6-0.2-1.93-1.11c-0.33-0.91-0.01-1.88,0.72-2.18c0.73-0.29-0.62,1.09-0.28,2
				C36.56,44.49,38.45,44.57,37.72,44.87z"/>
		</g>
		<path d="M71.93,42.61c0.74,0.26,1.1,1.23,0.8,2.15c-0.3,0.92-1.15,1.45-1.89,1.19c-0.74-0.26,1.14-0.43,1.44-1.35
			C72.59,43.67,71.19,42.34,71.93,42.61z"/>
		<g>
			<path class="st14" d="M43.04,25.04c0.34,0.29,3.86,3.21,9.22,3.05"/>
			<path class="st15" d="M46.99,24.25c-0.27-0.01-1,3.03,7.23,3.89"/>
			<path class="st16" d="M51.71,25.01c-0.15-0.01-0.57,2.44,4.17,3.13"/>
		</g>
	</g>
</g>
</svg>
